<svg xmlns="http://www.w3.org/2000/svg" viewBox="0 0 160 44" role="img" aria-label="Zadana">
  <rect width="160" height="44" rx="12" fill="none"/>
  <g fill="#127C8C">
    <path d="M20.7 9.2c-5.8 0-10.5 4.6-10.5 10.4S14.9 30 20.7 30c2.4 0 4.7-.8 6.5-2.2l-3.5-4.1a4.8 4.8 0 0 1-3 .9 5 5 0 1 1 3.8-8.2l4-3.6a10.4 10.4 0 0 0-7.8-3.6Z"/>
    <path d="M36.5 13.1h5.6V30h-5.6z"/>
    <path d="M36.5 8.6h5.6v2.9h-5.6z"/>
    <path d="M45.8 13.1h5.4v2.1c1.2-1.7 3-2.6 5.4-2.6 4.5 0 7.5 3 7.5 7.9V30h-5.6v-8.5c0-2.3-1.3-3.8-3.4-3.8s-3.7 1.6-3.7 4V30h-5.6z"/>
    <path d="M73.9 12.6c4.9 0 8.3 3.6 8.3 8.8 0 .5 0 1.1-.1 1.7H69.9c.5 1.8 2 2.9 4 2.9 1.6 0 3-.6 4.2-1.7l3.2 3.1a10.2 10.2 0 0 1-7.8 3.1c-5.8 0-9.6-3.7-9.6-9 0-5.2 3.8-8.9 9.8-8.9Zm-4 7.2h6.9c-.2-1.9-1.4-3.1-3.3-3.1-1.8 0-3.1 1.2-3.6 3.1Z"/>
  </g>
  <path d="M8 7.5 17.2 3l4.8 10.1-5.4 2.6L20.8 24l-4.6 2.2-4-8.5H8z" fill="#F59B23"/>
</svg>
